<mxfile host="app.diagrams.net" modified="2024-02-01T17:56:55.072Z" agent="Mozilla/5.0 (Windows NT 10.0; Win64; x64) AppleWebKit/537.36 (KHTML, like Gecko) Chrome/120.0.0.0 Safari/537.36" etag="dabhZnNhogQhFYz2NjHP" version="23.1.1" type="github">
  <diagram name="Página-1" id="W2nmdlCO25Sumn6uIq-6">
    <mxGraphModel dx="1707" dy="460" grid="1" gridSize="10" guides="1" tooltips="1" connect="1" arrows="1" fold="1" page="1" pageScale="1" pageWidth="827" pageHeight="1169" math="0" shadow="0">
      <root>
        <mxCell id="0" />
        <mxCell id="1" parent="0" />
        <mxCell id="7LRHFeRIMIh6UOn7Dlo8-1" value="edad de las personas si menor o mayor de edad." style="ellipse;whiteSpace=wrap;html=1;" vertex="1" parent="1">
          <mxGeometry x="280" y="60" width="120" height="80" as="geometry" />
        </mxCell>
        <mxCell id="7LRHFeRIMIh6UOn7Dlo8-2" value="cual es tu edad ?" style="shape=parallelogram;perimeter=parallelogramPerimeter;whiteSpace=wrap;html=1;fixedSize=1;" vertex="1" parent="1">
          <mxGeometry x="280" y="220" width="120" height="60" as="geometry" />
        </mxCell>
        <mxCell id="7LRHFeRIMIh6UOn7Dlo8-3" value="" style="endArrow=classic;html=1;rounded=0;entryX=0.5;entryY=0;entryDx=0;entryDy=0;exitX=0.5;exitY=1;exitDx=0;exitDy=0;" edge="1" parent="1" source="7LRHFeRIMIh6UOn7Dlo8-1" target="7LRHFeRIMIh6UOn7Dlo8-2">
          <mxGeometry width="50" height="50" relative="1" as="geometry">
            <mxPoint x="350" y="150" as="sourcePoint" />
            <mxPoint x="440" y="220" as="targetPoint" />
            <Array as="points" />
          </mxGeometry>
        </mxCell>
        <mxCell id="7LRHFeRIMIh6UOn7Dlo8-4" value="si la persona es &amp;gt;= 18 en si es &amp;lt; 18 no entra&amp;nbsp;" style="rhombus;whiteSpace=wrap;html=1;" vertex="1" parent="1">
          <mxGeometry x="250" y="350" width="180" height="160" as="geometry" />
        </mxCell>
        <mxCell id="7LRHFeRIMIh6UOn7Dlo8-5" value="" style="endArrow=classic;html=1;rounded=0;entryX=0.5;entryY=0;entryDx=0;entryDy=0;exitX=0.5;exitY=1;exitDx=0;exitDy=0;" edge="1" parent="1" source="7LRHFeRIMIh6UOn7Dlo8-2" target="7LRHFeRIMIh6UOn7Dlo8-4">
          <mxGeometry width="50" height="50" relative="1" as="geometry">
            <mxPoint x="390" y="400" as="sourcePoint" />
            <mxPoint x="440" y="350" as="targetPoint" />
          </mxGeometry>
        </mxCell>
        <mxCell id="7LRHFeRIMIh6UOn7Dlo8-7" value="" style="endArrow=classic;html=1;rounded=0;exitX=0;exitY=0.5;exitDx=0;exitDy=0;" edge="1" parent="1" source="7LRHFeRIMIh6UOn7Dlo8-4" target="7LRHFeRIMIh6UOn7Dlo8-8">
          <mxGeometry width="50" height="50" relative="1" as="geometry">
            <mxPoint x="390" y="390" as="sourcePoint" />
            <mxPoint x="90" y="430" as="targetPoint" />
          </mxGeometry>
        </mxCell>
        <mxCell id="7LRHFeRIMIh6UOn7Dlo8-8" value="es&amp;nbsp; menor de 18" style="rounded=0;whiteSpace=wrap;html=1;" vertex="1" parent="1">
          <mxGeometry x="30" y="400" width="120" height="60" as="geometry" />
        </mxCell>
        <mxCell id="7LRHFeRIMIh6UOn7Dlo8-9" value="no entra por que es menos de edad." style="ellipse;whiteSpace=wrap;html=1;" vertex="1" parent="1">
          <mxGeometry x="-10" y="540" width="120" height="80" as="geometry" />
        </mxCell>
        <mxCell id="7LRHFeRIMIh6UOn7Dlo8-10" value="" style="endArrow=classic;html=1;rounded=0;entryX=0.5;entryY=0;entryDx=0;entryDy=0;" edge="1" parent="1" target="7LRHFeRIMIh6UOn7Dlo8-9">
          <mxGeometry width="50" height="50" relative="1" as="geometry">
            <mxPoint x="70" y="460" as="sourcePoint" />
            <mxPoint x="60" y="540" as="targetPoint" />
          </mxGeometry>
        </mxCell>
        <mxCell id="7LRHFeRIMIh6UOn7Dlo8-11" value="" style="endArrow=classic;html=1;rounded=0;exitX=0.5;exitY=1;exitDx=0;exitDy=0;" edge="1" parent="1" source="7LRHFeRIMIh6UOn7Dlo8-4" target="7LRHFeRIMIh6UOn7Dlo8-12">
          <mxGeometry width="50" height="50" relative="1" as="geometry">
            <mxPoint x="390" y="390" as="sourcePoint" />
            <mxPoint x="550" y="430" as="targetPoint" />
          </mxGeometry>
        </mxCell>
        <mxCell id="7LRHFeRIMIh6UOn7Dlo8-12" value="mostrar el documento de ID&lt;br&gt;si es nacido antes o igual al 2006 es mayor de edad" style="rhombus;whiteSpace=wrap;html=1;" vertex="1" parent="1">
          <mxGeometry x="250" y="640" width="180" height="140" as="geometry" />
        </mxCell>
        <mxCell id="7LRHFeRIMIh6UOn7Dlo8-13" value="" style="endArrow=classic;html=1;rounded=0;" edge="1" parent="1" target="7LRHFeRIMIh6UOn7Dlo8-14">
          <mxGeometry width="50" height="50" relative="1" as="geometry">
            <mxPoint x="420" y="690" as="sourcePoint" />
            <mxPoint x="600" y="560" as="targetPoint" />
            <Array as="points">
              <mxPoint x="430" y="710" />
            </Array>
          </mxGeometry>
        </mxCell>
        <mxCell id="7LRHFeRIMIh6UOn7Dlo8-14" value="es nacido&amp;nbsp; igual o antes al año 2006" style="rounded=1;whiteSpace=wrap;html=1;" vertex="1" parent="1">
          <mxGeometry x="520" y="680" width="120" height="60" as="geometry" />
        </mxCell>
        <mxCell id="7LRHFeRIMIh6UOn7Dlo8-15" value="puede entrar" style="ellipse;whiteSpace=wrap;html=1;" vertex="1" parent="1">
          <mxGeometry x="520" y="820" width="120" height="80" as="geometry" />
        </mxCell>
        <mxCell id="7LRHFeRIMIh6UOn7Dlo8-16" value="" style="endArrow=classic;html=1;rounded=0;entryX=0.5;entryY=0;entryDx=0;entryDy=0;exitX=0.5;exitY=1;exitDx=0;exitDy=0;" edge="1" parent="1" source="7LRHFeRIMIh6UOn7Dlo8-14" target="7LRHFeRIMIh6UOn7Dlo8-15">
          <mxGeometry width="50" height="50" relative="1" as="geometry">
            <mxPoint x="380" y="760" as="sourcePoint" />
            <mxPoint x="430" y="710" as="targetPoint" />
          </mxGeometry>
        </mxCell>
        <mxCell id="7LRHFeRIMIh6UOn7Dlo8-17" value="" style="endArrow=classic;html=1;rounded=0;exitX=0;exitY=0.5;exitDx=0;exitDy=0;" edge="1" parent="1" source="7LRHFeRIMIh6UOn7Dlo8-12" target="7LRHFeRIMIh6UOn7Dlo8-18">
          <mxGeometry width="50" height="50" relative="1" as="geometry">
            <mxPoint x="380" y="760" as="sourcePoint" />
            <mxPoint x="190" y="710" as="targetPoint" />
          </mxGeometry>
        </mxCell>
        <mxCell id="7LRHFeRIMIh6UOn7Dlo8-18" value="es nacido despues del&amp;nbsp; 2006&amp;nbsp;" style="rounded=0;whiteSpace=wrap;html=1;" vertex="1" parent="1">
          <mxGeometry x="100" y="680" width="120" height="60" as="geometry" />
        </mxCell>
        <mxCell id="7LRHFeRIMIh6UOn7Dlo8-20" value="" style="endArrow=classic;html=1;rounded=0;exitX=0.5;exitY=0;exitDx=0;exitDy=0;" edge="1" parent="1" source="7LRHFeRIMIh6UOn7Dlo8-18" target="7LRHFeRIMIh6UOn7Dlo8-9">
          <mxGeometry width="50" height="50" relative="1" as="geometry">
            <mxPoint x="160" y="670" as="sourcePoint" />
            <mxPoint x="430" y="710" as="targetPoint" />
            <Array as="points">
              <mxPoint x="160" y="580" />
            </Array>
          </mxGeometry>
        </mxCell>
      </root>
    </mxGraphModel>
  </diagram>
</mxfile>
